<?xml version="1.0" encoding="UTF-8"?>
<!DOCTYPE svg PUBLIC "-//W3C//DTD SVG 1.1//EN" "http://www.w3.org/Graphics/SVG/1.1/DTD/svg11.dtd">
<svg xmlns="http://www.w3.org/2000/svg" version="1.1" width="1080px" height="1080px" style="shape-rendering:geometricPrecision; text-rendering:geometricPrecision; image-rendering:optimizeQuality; fill-rule:evenodd; clip-rule:evenodd" xmlns:xlink="http://www.w3.org/1999/xlink">
<g><path style="opacity:1" fill="#0c0c0c" d="M -0.5,-0.5 C 359.5,-0.5 719.5,-0.5 1079.5,-0.5C 1079.5,359.5 1079.5,719.5 1079.5,1079.5C 719.5,1079.5 359.5,1079.5 -0.5,1079.5C -0.5,719.5 -0.5,359.5 -0.5,-0.5 Z"/></g>
<g><path style="opacity:1" fill="#eeeeee" d="M 115.5,422.5 C 140.502,422.333 165.502,422.5 190.5,423C 191.766,423.309 192.933,423.809 194,424.5C 208.68,465.878 223.347,507.211 238,548.5C 240.951,541.423 244.785,534.923 249.5,529C 277.833,528.333 306.167,528.333 334.5,529C 336.211,530.133 336.711,531.633 336,533.5C 315.692,574.116 294.859,614.449 273.5,654.5C 272.5,655 271.5,655.5 270.5,656C 244.833,656.667 219.167,656.667 193.5,656C 191.714,655.215 190.214,654.049 189,652.5C 163.514,577.375 138.014,502.208 112.5,427C 113.008,425.107 114.008,423.607 115.5,422.5 Z"/></g>
<g><path style="opacity:1" fill="#eeeeee" d="M 777.5,422.5 C 802.169,422.333 826.836,422.5 851.5,423C 854.2,423.949 855.033,425.783 854,428.5C 852.188,431.28 850.021,433.78 847.5,436C 858.495,436.5 869.495,436.667 880.5,436.5C 881.483,432.393 882.983,428.393 885,424.5C 886.067,423.809 887.234,423.309 888.5,423C 913.5,422.333 938.5,422.333 963.5,423C 965.852,423.576 966.852,425.076 966.5,427.5C 941.787,501.471 916.954,575.471 892,649.5C 891.208,651.587 890.041,653.421 888.5,655C 874.924,656.15 861.257,656.65 847.5,656.5C 834.5,656.333 821.5,656.167 808.5,656C 807.5,655.5 806.5,655 805.5,654.5C 783.269,613.705 762.436,572.371 743,530.5C 743.5,530 744,529.5 744.5,529C 772.167,528.333 799.833,528.333 827.5,529C 829.848,529.346 831.681,530.513 833,532.5C 835.667,537.833 838.333,543.167 841,548.5C 847.897,531.938 853.73,514.938 858.5,497.5C 837.831,497.333 817.164,497.5 796.5,498C 793.333,501.833 790.167,505.667 787,509.5C 785.062,512.106 782.562,513.939 779.5,515C 764.432,515.951 749.432,515.617 734.5,514C 730.033,507.571 726.2,500.738 723,493.5C 722.333,490.833 722.333,488.167 723,485.5C 739,466.167 755,446.833 771,427.5C 772.965,425.45 775.132,423.783 777.5,422.5 Z"/></g>
<g><path style="opacity:1" fill="#ebebeb" d="M 473.5,436.5 C 479.561,436.21 485.561,436.543 491.5,437.5C 494.142,443.994 494.142,450.494 491.5,457C 471.906,462.236 465.906,455.403 473.5,436.5 Z"/></g>
<g><path style="opacity:1" fill="#efefef" d="M 303.5,436.5 C 329.741,436.172 355.908,436.505 382,437.5C 382.667,439.167 382.667,440.833 382,442.5C 370.574,465.687 358.907,488.687 347,511.5C 345.786,513.049 344.286,514.215 342.5,515C 308.106,515.979 273.773,515.646 239.5,514C 233.693,501.251 229.526,488.084 227,474.5C 231.5,468.667 236.667,463.5 242.5,459C 258.5,458.667 274.5,458.333 290.5,458C 293.794,451.912 296.961,445.745 300,439.5C 301.145,438.364 302.312,437.364 303.5,436.5 Z"/></g>
<g><path style="opacity:1" fill="#efefef" d="M 422.5,440.5 C 422.5,452.5 422.5,464.5 422.5,476.5C 437.833,476.5 453.167,476.5 468.5,476.5C 470.308,476.491 471.975,476.991 473.5,478C 479.333,483.833 485.167,489.667 491,495.5C 491.862,497.087 492.529,498.754 493,500.5C 493.667,531.833 493.667,563.167 493,594.5C 492.751,595.624 492.251,596.624 491.5,597.5C 473.709,598.16 455.876,598.494 438,598.5C 419.746,598.654 401.579,598.154 383.5,597C 369.976,581.444 356.809,565.61 344,549.5C 343.333,547.5 343.333,545.5 344,543.5C 361.667,508.833 379.333,474.167 397,439.5C 397.833,438.667 398.667,437.833 399.5,437C 406.5,436.333 413.5,436.333 420.5,437C 421.823,437.816 422.489,438.983 422.5,440.5 Z"/></g>
<g><path style="opacity:1" fill="#ebebeb" d="M 442.5,436.5 C 448.561,436.21 454.561,436.543 460.5,437.5C 467.89,454.58 462.557,461.413 444.5,458C 443.069,457.535 441.903,456.701 441,455.5C 440.022,448.987 440.522,442.654 442.5,436.5 Z"/></g>
<g><path style="opacity:1" fill="#efefef" d="M 694.5,500.5 C 693.957,500.56 693.624,500.893 693.5,501.5C 699.128,502.495 704.794,502.829 710.5,502.5C 712.716,503.203 714.549,504.536 716,506.5C 730.922,535.344 745.589,564.344 760,593.5C 760.72,595.112 760.554,596.612 759.5,598C 726.5,598.667 693.5,598.667 660.5,598C 659.069,597.535 657.903,596.701 657,595.5C 651.922,585.01 646.589,574.677 641,564.5C 633.427,573.316 626.094,582.316 619,591.5C 616.795,594.04 614.295,596.207 611.5,598C 577.167,598.667 542.833,598.667 508.5,598C 507.809,596.933 507.309,595.766 507,594.5C 506.833,578.5 506.667,562.5 506.5,546.5C 506.347,529.745 506.847,513.078 508,496.5C 514.5,490 521,483.5 527.5,477C 557.119,475.698 586.785,475.032 616.5,475C 621.301,469.855 625.967,464.688 630.5,459.5C 631.043,459.44 631.376,459.107 631.5,458.5C 591.172,457.5 550.839,457.167 510.5,457.5C 508.983,457.489 507.816,456.823 507,455.5C 506.333,450.5 506.333,445.5 507,440.5C 507.309,439.234 507.809,438.067 508.5,437C 586.5,436.333 664.5,436.333 742.5,437C 743.554,438.388 743.72,439.888 743,441.5C 726.621,461.04 710.455,480.707 694.5,500.5 Z"/></g>
<g><path style="opacity:1" fill="#979797" d="M 510.5,457.5 C 550.839,457.167 591.172,457.5 631.5,458.5C 631.376,459.107 631.043,459.44 630.5,459.5C 590.5,458.833 550.5,458.167 510.5,457.5 Z"/></g>
<g><path style="opacity:1" fill="#0d0d0d" d="M 867.5,474.5 C 850.069,475.824 832.736,475.824 815.5,474.5C 819.593,469.231 823.926,464.065 828.5,459C 843.167,458.333 857.833,458.333 872.5,459C 870.332,464.003 868.666,469.17 867.5,474.5 Z"/></g>
<g><path style="opacity:1" fill="#a3a3a3" d="M 422.5,440.5 C 423.495,451.988 423.828,463.655 423.5,475.5C 438.676,475.171 453.676,475.504 468.5,476.5C 453.167,476.5 437.833,476.5 422.5,476.5C 422.5,464.5 422.5,452.5 422.5,440.5 Z"/></g>
<g><path style="opacity:1" fill="#c0c0c0" d="M 815.5,474.5 C 832.736,475.824 850.069,475.824 867.5,474.5C 859.026,475.832 850.193,476.498 841,476.5C 832.167,476.167 823.333,475.833 814.5,475.5C 814.624,474.893 814.957,474.56 815.5,474.5 Z"/></g>
<g><path style="opacity:1" fill="#616161" d="M 694.5,500.5 C 699.833,501.167 705.167,501.833 710.5,502.5C 704.794,502.829 699.128,502.495 693.5,501.5C 693.624,500.893 693.957,500.56 694.5,500.5 Z"/></g>
<g><path style="opacity:1" fill="#8b8b8b" d="M 360.5,629.5 C 357.833,629.5 355.167,629.5 352.5,629.5C 352.5,637.5 352.5,645.5 352.5,653.5C 353.5,653.5 354.5,653.5 355.5,653.5C 354.432,654.434 353.099,654.768 351.5,654.5C 351.5,645.833 351.5,637.167 351.5,628.5C 354.713,628.19 357.713,628.523 360.5,629.5 Z"/></g>
<g><path style="opacity:1" fill="#eeeeee" d="M 360.5,629.5 C 361.492,629.328 362.158,629.662 362.5,630.5C 361.609,631.11 360.609,631.443 359.5,631.5C 358.167,631.5 356.833,631.5 355.5,631.5C 355.5,634.5 355.5,637.5 355.5,640.5C 357.099,640.768 358.432,640.434 359.5,639.5C 360.167,639.5 360.5,639.167 360.5,638.5C 361.302,637.048 361.802,635.382 362,633.5C 362.29,635.92 362.79,638.254 363.5,640.5C 363.047,641.458 362.381,642.292 361.5,643C 363.208,646.293 364.208,649.793 364.5,653.5C 363.167,653.5 361.833,653.5 360.5,653.5C 357.549,640.502 355.882,640.502 355.5,653.5C 354.5,653.5 353.5,653.5 352.5,653.5C 352.5,645.5 352.5,637.5 352.5,629.5C 355.167,629.5 357.833,629.5 360.5,629.5 Z"/></g>
<g><path style="opacity:1" fill="#777777" d="M 396.5,629.5 C 392.833,629.5 389.167,629.5 385.5,629.5C 385.5,637.5 385.5,645.5 385.5,653.5C 389.167,653.5 392.833,653.5 396.5,653.5C 392.702,654.483 388.702,654.817 384.5,654.5C 384.5,645.833 384.5,637.167 384.5,628.5C 388.702,628.183 392.702,628.517 396.5,629.5 Z"/></g>
<g><path style="opacity:1" fill="#dcdcdc" d="M 396.5,629.5 C 396.5,630.5 396.5,631.5 396.5,632.5C 394.167,632.5 391.833,632.5 389.5,632.5C 389.5,634.833 389.5,637.167 389.5,639.5C 391.5,639.5 393.5,639.5 395.5,639.5C 395.5,640.5 395.5,641.5 395.5,642.5C 393.5,642.5 391.5,642.5 389.5,642.5C 389.5,645.167 389.5,647.833 389.5,650.5C 391.833,650.5 394.167,650.5 396.5,650.5C 396.5,651.5 396.5,652.5 396.5,653.5C 392.833,653.5 389.167,653.5 385.5,653.5C 385.5,645.5 385.5,637.5 385.5,629.5C 389.167,629.5 392.833,629.5 396.5,629.5 Z"/></g>
<g><path style="opacity:1" fill="#efefef" d="M 491.5,629.5 C 491.5,630.5 491.5,631.5 491.5,632.5C 490.167,632.5 488.833,632.5 487.5,632.5C 486.509,639.313 486.175,646.313 486.5,653.5C 485.5,653.5 484.5,653.5 483.5,653.5C 483.5,646.167 483.5,638.833 483.5,631.5C 482.022,631.762 480.689,631.429 479.5,630.5C 483.445,629.509 487.445,629.176 491.5,629.5 Z"/></g>
<g><path style="opacity:1" fill="#eaeaea" d="M 511.5,629.5 C 512.833,629.5 514.167,629.5 515.5,629.5C 515.5,637.5 515.5,645.5 515.5,653.5C 514.167,653.5 512.833,653.5 511.5,653.5C 511.5,645.5 511.5,637.5 511.5,629.5 Z"/></g>
<g><path style="opacity:1" fill="#e9e9e9" d="M 621.5,629.5 C 622.833,629.5 624.167,629.5 625.5,629.5C 625.334,636.175 625.5,642.842 626,649.5C 627.667,650.833 629.333,650.833 631,649.5C 631.5,642.842 631.666,636.175 631.5,629.5C 632.5,629.5 633.5,629.5 634.5,629.5C 634.666,636.841 634.5,644.174 634,651.5C 631.441,654.349 628.274,655.183 624.5,654C 623.299,653.097 622.465,651.931 622,650.5C 621.5,643.508 621.334,636.508 621.5,629.5 Z"/></g>
<g><path style="opacity:1" fill="#e9e9e9" d="M 655.5,629.5 C 665.076,627.581 669.409,631.414 668.5,641C 669.857,651.144 665.524,655.31 655.5,653.5C 655.5,645.5 655.5,637.5 655.5,629.5 Z"/></g>
<g><path style="opacity:1" fill="#7b7b7b" d="M 688.5,628.5 C 690.167,628.5 691.833,628.5 693.5,628.5C 693.5,637.167 693.5,645.833 693.5,654.5C 691.833,654.5 690.167,654.5 688.5,654.5C 688.5,645.833 688.5,637.167 688.5,628.5 Z"/></g>
<g><path style="opacity:1" fill="#f7f7f7" d="M 689.5,629.5 C 690.5,629.5 691.5,629.5 692.5,629.5C 692.5,637.5 692.5,645.5 692.5,653.5C 691.5,653.5 690.5,653.5 689.5,653.5C 689.5,645.5 689.5,637.5 689.5,629.5 Z"/></g>
<g><path style="opacity:1" fill="#cacaca" d="M 362.5,630.5 C 365.979,633.552 366.313,636.886 363.5,640.5C 362.79,638.254 362.29,635.92 362,633.5C 361.802,635.382 361.302,637.048 360.5,638.5C 360.795,636.265 360.461,634.265 359.5,632.5C 359.5,632.167 359.5,631.833 359.5,631.5C 360.609,631.443 361.609,631.11 362.5,630.5 Z"/></g>
<g><path style="opacity:1" fill="#777777" d="M 359.5,631.5 C 359.5,631.833 359.5,632.167 359.5,632.5C 358.5,632.5 357.5,632.5 356.5,632.5C 356.5,634.833 356.5,637.167 356.5,639.5C 357.5,639.5 358.5,639.5 359.5,639.5C 358.432,640.434 357.099,640.768 355.5,640.5C 355.5,637.5 355.5,634.5 355.5,631.5C 356.833,631.5 358.167,631.5 359.5,631.5 Z"/></g>
<g><path style="opacity:1" fill="#101010" d="M 359.5,632.5 C 360.461,634.265 360.795,636.265 360.5,638.5C 360.5,639.167 360.167,639.5 359.5,639.5C 358.5,639.5 357.5,639.5 356.5,639.5C 356.5,637.167 356.5,634.833 356.5,632.5C 357.5,632.5 358.5,632.5 359.5,632.5 Z"/></g>
<g><path style="opacity:1" fill="#515151" d="M 491.5,629.5 C 487.445,629.176 483.445,629.509 479.5,630.5C 480.689,631.429 482.022,631.762 483.5,631.5C 483.5,638.833 483.5,646.167 483.5,653.5C 482.509,646.687 482.175,639.687 482.5,632.5C 481.167,632.5 479.833,632.5 478.5,632.5C 478.5,631.167 478.5,629.833 478.5,628.5C 483.032,628.182 487.366,628.515 491.5,629.5 Z"/></g>
<g><path style="opacity:1" fill="#ababab" d="M 487.5,632.5 C 487.5,639.833 487.5,647.167 487.5,654.5C 485.901,654.768 484.568,654.434 483.5,653.5C 484.5,653.5 485.5,653.5 486.5,653.5C 486.175,646.313 486.509,639.313 487.5,632.5 Z"/></g>
<g><path style="opacity:1" fill="#dfdfdf" d="M 561.5,628.5 C 567.675,627.677 570.675,630.344 570.5,636.5C 569.167,636.5 567.833,636.5 566.5,636.5C 566.884,634.335 566.217,632.668 564.5,631.5C 562.554,633.044 562.054,635.044 563,637.5C 570.996,641.413 572.496,646.913 567.5,654C 561.32,655.32 558.32,652.82 558.5,646.5C 559.5,646.5 560.5,646.5 561.5,646.5C 561.244,648.912 562.244,650.579 564.5,651.5C 566.446,649.956 566.946,647.956 566,645.5C 563.581,643.15 561.248,640.816 559,638.5C 557.861,634.579 558.695,631.246 561.5,628.5 Z"/></g>
<g><path style="opacity:1" fill="#989898" d="M 593.5,632.5 C 594.491,639.313 594.825,646.313 594.5,653.5C 595.5,653.5 596.5,653.5 597.5,653.5C 596.432,654.434 595.099,654.768 593.5,654.5C 593.5,647.167 593.5,639.833 593.5,632.5 Z"/></g>
<g><path style="opacity:1" fill="#f1f1f1" d="M 597.5,653.5 C 596.5,653.5 595.5,653.5 594.5,653.5C 594.825,646.313 594.491,639.313 593.5,632.5C 592.167,632.5 590.833,632.5 589.5,632.5C 589.5,631.5 589.5,630.5 589.5,629.5C 593.833,629.5 598.167,629.5 602.5,629.5C 602.5,630.5 602.5,631.5 602.5,632.5C 600.833,632.5 599.167,632.5 597.5,632.5C 597.5,639.5 597.5,646.5 597.5,653.5 Z"/></g>
<g><path style="opacity:1" fill="#191919" d="M 659.5,632.5 C 661.144,632.286 662.644,632.62 664,633.5C 664.784,638.887 664.618,644.22 663.5,649.5C 662.311,650.429 660.978,650.762 659.5,650.5C 659.5,644.5 659.5,638.5 659.5,632.5 Z"/></g>
<g><path style="opacity:1" fill="#e6e6e6" d="M 717.5,628.5 C 721.888,627.943 725.055,629.61 727,633.5C 727.667,638.5 727.667,643.5 727,648.5C 725.789,653.71 722.623,655.544 717.5,654C 715.513,652.681 714.346,650.848 714,648.5C 713.333,643.5 713.333,638.5 714,633.5C 714.997,631.677 716.164,630.01 717.5,628.5 Z"/></g>
<g><path style="opacity:1" fill="#161616" d="M 719.5,631.5 C 721.017,631.511 722.184,632.177 723,633.5C 723.667,638.167 723.667,642.833 723,647.5C 721.944,652.214 720.277,652.547 718,648.5C 717.333,643.5 717.333,638.5 718,633.5C 718.717,632.956 719.217,632.289 719.5,631.5 Z"/></g>
<g><path style="opacity:1" fill="#e2e2e2" d="M 461.5,650.5 C 461.5,651.5 461.5,652.5 461.5,653.5C 460.5,653.5 459.5,653.5 458.5,653.5C 457.539,651.735 457.205,649.735 457.5,647.5C 455.5,647.5 453.5,647.5 451.5,647.5C 451.5,649.5 451.5,651.5 451.5,653.5C 450.167,653.5 448.833,653.5 447.5,653.5C 448.617,645.463 449.951,637.463 451.5,629.5C 453.792,629.244 455.959,629.577 458,630.5C 459.276,637.159 460.443,643.826 461.5,650.5 Z"/></g>
<g><path style="opacity:1" fill="#252525" d="M 454.5,634.5 C 455.434,637.656 456.101,640.989 456.5,644.5C 455.022,644.762 453.689,644.429 452.5,643.5C 453.169,640.47 453.835,637.47 454.5,634.5 Z"/></g>
<g><path style="opacity:1" fill="#dbdbdb" d="M 415.5,629.5 C 417.144,629.286 418.644,629.62 420,630.5C 422.334,651.569 424.168,651.235 425.5,629.5C 426.833,629.5 428.167,629.5 429.5,629.5C 428.3,637.505 426.966,645.505 425.5,653.5C 423.5,653.5 421.5,653.5 419.5,653.5C 418.383,645.463 417.049,637.463 415.5,629.5 Z"/></g>
<g><path style="opacity:1" fill="#6b6b6b" d="M 461.5,650.5 C 462.434,651.568 462.768,652.901 462.5,654.5C 460.901,654.768 459.568,654.434 458.5,653.5C 459.5,653.5 460.5,653.5 461.5,653.5C 461.5,652.5 461.5,651.5 461.5,650.5 Z"/></g>
</svg>
